<svg xmlns="http://www.w3.org/2000/svg" viewBox="0 0 230.533792 69.816124" preserveAspectRatio="xMidYMid meet">
  <g transform="translate(-133.157757,296.386933) scale(0.1,-0.1)" fill="#000000" stroke="none">
    <path d="M2684 2960 c-41 -9 -77 -35 -141 -103 -96 -101 -87 -137 52 -224 111 -69 155 -111 155 -148 0 -34 -10 -37 -67 -20 -60 18 -103 49 -103 75 0 35 -18 30 -72 -19 -50 -45 -64 -51 -110 -42 -16 3 -52 78 -103 216 -98 265 -134 299 -251 240 -64 -32 -140 -98 -130 -113 5 -9 14 -8 36 3 37 19 99 19 124 0 19 -14 18 -15 -10 -37 -82 -64 -103 -104 -115 -220 -14 -142 -31 -187 -95 -258 -19 -21 -31 -41 -26 -44 12 -7 107 58 157 109 24 23 49 61 57 86 l15 44 54 3 c32 2 61 10 72 19 16 15 18 14 30 -18 23 -63 62 -133 82 -146 18 -11 26 -8 75 32 30 24 59 44 63 45 5 0 19 -13 33 -29 32 -39 112 -65 170 -57 84 11 205 91 240 157 34 67 14 96 -143 207 -93 66 -133 103 -133 124 0 14 80 9 110 -7 21 -11 30 -23 30 -40 0 -41 24 -29 89 42 55 62 59 69 44 85 -28 31 -129 51 -189 38z m-532 -266 c15 -38 27 -75 28 -81 0 -9 -18 -13 -56 -13 l-56 0 7 43 c13 81 28 128 39 124 6 -2 23 -35 38 -73z"/>
    <path d="M1401 2902 c-77 -63 -89 -85 -41 -76 25 6 31 3 40 -20 14 -37 13 -365 -1 -405 -14 -40 -8 -46 30 -33 22 8 46 7 89 -3 41 -10 70 -11 92 -5 89 26 193 122 238 220 37 80 38 197 2 257 -31 51 -90 99 -141 114 -37 12 -40 11 -85 -27 -25 -21 -57 -47 -70 -57 -24 -18 -24 -18 -24 3 0 28 -25 76 -44 83 -9 4 -42 -16 -85 -51z m273 -95 c91 -95 113 -307 35 -344 -21 -10 -35 -10 -75 1 -27 8 -61 17 -76 20 l-28 6 0 154 0 154 31 26 c43 36 66 33 113 -17z"/>
    <path d="M2941 2903 c-76 -63 -90 -89 -42 -78 46 10 51 -12 51 -207 0 -145 3 -179 18 -207 30 -60 43 -60 110 -5 61 49 80 81 42 71 -24 -6 -36 8 -44 56 l-7 37 69 0 c50 0 73 4 82 15 24 28 30 15 30 -64 0 -84 8 -118 35 -144 23 -23 26 -22 85 26 28 23 55 42 60 42 11 0 209 159 207 166 -1 4 -47 43 -102 88 l-100 81 -3 -149 c-2 -140 -4 -149 -23 -154 -32 -9 -39 29 -39 218 0 180 -5 210 -40 245 l-21 21 -74 -61 c-46 -39 -72 -67 -68 -76 4 -10 10 -11 25 -3 35 19 51 -10 52 -88 l1 -68 -85 0 -85 0 -1 106 c-2 106 -13 149 -47 178 -12 10 -28 2 -86 -46z"/>
  </g>
</svg>
